<?xml version="1.0" encoding="UTF-8"?>
<svg xmlns="http://www.w3.org/2000/svg" xmlns:xlink="http://www.w3.org/1999/xlink" width="30px" height="30px" viewBox="0 0 30 30" version="1.1">
<g id="surface1">
<path style=" stroke:none;fill-rule:nonzero;fill:rgb(0%,0%,0%);fill-opacity:1;" d="M 3.617188 9.925781 L 9.5625 26.214844 C 5.402344 24.199219 2.539062 19.933594 2.539062 15 C 2.539062 13.1875 2.921875 11.476562 3.613281 9.925781 Z M 23.414062 14.375 C 23.414062 12.832031 22.863281 11.765625 22.386719 10.933594 C 21.753906 9.910156 21.164062 9.035156 21.164062 8.011719 C 21.164062 6.863281 22.03125 5.796875 23.257812 5.796875 C 23.308594 5.796875 23.359375 5.800781 23.421875 5.808594 C 21.199219 3.773438 18.246094 2.53125 15 2.53125 C 10.648438 2.53125 6.816406 4.765625 4.582031 8.152344 C 4.875 8.164062 5.148438 8.167969 5.382812 8.167969 C 6.6875 8.167969 8.707031 8.011719 8.707031 8.011719 C 9.382812 7.96875 9.457031 8.960938 8.789062 9.035156 C 8.789062 9.035156 8.117188 9.113281 7.367188 9.152344 L 11.90625 22.652344 L 14.636719 14.472656 L 12.699219 9.152344 C 12.023438 9.109375 11.390625 9.035156 11.390625 9.035156 C 10.71875 8.992188 10.796875 7.96875 11.46875 8.007812 C 11.46875 8.007812 13.523438 8.167969 14.75 8.167969 C 16.050781 8.167969 18.070312 8.007812 18.070312 8.007812 C 18.746094 7.96875 18.820312 8.957031 18.152344 9.035156 C 18.152344 9.035156 17.476562 9.109375 16.726562 9.152344 L 21.234375 22.554688 L 22.476562 18.398438 C 23.003906 16.675781 23.414062 15.4375 23.414062 14.375 Z M 15.214844 16.089844 L 11.476562 26.960938 C 12.597656 27.289062 13.773438 27.46875 15 27.46875 C 16.453125 27.46875 17.839844 27.21875 19.136719 26.757812 C 19.101562 26.707031 19.070312 26.648438 19.046875 26.589844 Z M 25.9375 9.019531 C 25.992188 9.417969 26.019531 9.839844 26.019531 10.300781 C 26.019531 11.566406 25.785156 12.984375 25.070312 14.765625 L 21.261719 25.777344 C 24.972656 23.613281 27.460938 19.601562 27.460938 15 C 27.460938 12.832031 26.914062 10.792969 25.9375 9.015625 Z M 29.53125 15 C 29.53125 23.015625 23.007812 29.53125 15 29.53125 C 6.984375 29.53125 0.46875 23.007812 0.46875 15 C 0.46875 6.984375 6.984375 0.46875 15 0.46875 C 23.007812 0.46875 29.53125 6.984375 29.53125 15 Z M 28.863281 15 C 28.863281 7.351562 22.640625 1.136719 15 1.136719 C 7.351562 1.136719 1.136719 7.351562 1.136719 15 C 1.136719 22.648438 7.359375 28.863281 15 28.863281 C 22.648438 28.863281 28.863281 22.648438 28.863281 15 Z M 28.863281 15 "/>
</g>
</svg>
