<?xml version="1.0" encoding="UTF-8"?>
<svg xmlns="http://www.w3.org/2000/svg" xmlns:xlink="http://www.w3.org/1999/xlink" width="30px" height="24px" viewBox="0 0 30 24" version="1.1">
<g id="surface1">
<path style=" stroke:none;fill-rule:nonzero;fill:rgb(0%,0%,0%);fill-opacity:1;" d="M 16.054688 1.5 C 16.742188 1.5 17.375 1.878906 17.699219 2.484375 L 18.359375 3.699219 L 20.582031 1.847656 C 20.855469 1.621094 21.191406 1.5 21.542969 1.5 L 22.5 1.5 C 23.328125 1.5 24 2.171875 24 3 L 24 4.5 C 24 5.328125 23.328125 6 22.5 6 L 19.601562 6 L 22.1875 10.738281 C 22.757812 10.597656 23.367188 10.5 24 10.5 C 27.3125 10.5 30 13.1875 30 16.5 C 30 19.8125 27.3125 22.5 24 22.5 C 20.6875 22.5 18 19.8125 18 16.5 C 18 14.582031 18.863281 12.953125 20.207031 11.851562 L 19.484375 10.507812 C 17.628906 11.878906 16.5 14.054688 16.5 16.5 C 16.5 16.972656 16.550781 17.515625 16.648438 18 L 13.351562 18 C 13.449219 17.515625 13.457031 16.972656 13.457031 16.5 C 13.457031 12.355469 10.144531 9 5.957031 9 L 1.457031 9 L 1.457031 7.5 C 1.457031 6.671875 2.171875 6 2.957031 6 L 7.757812 6 C 8.554688 6 9.3125 6.3125 9.875 6.875 L 11.957031 9 L 16.597656 5.171875 L 15.828125 3.75 L 13.082031 3.75 C 12.5 3.75 11.957031 3.246094 11.957031 2.625 C 11.957031 2.003906 12.5 1.5 13.082031 1.5 Z M 21 16.5 C 21 18.15625 22.34375 19.5 24 19.5 C 25.65625 19.5 27 18.15625 27 16.5 C 27 14.84375 25.65625 13.5 24 13.5 C 23.886719 13.5 23.773438 13.503906 23.667969 13.519531 L 24.988281 15.964844 C 25.285156 16.507812 25.082031 17.195312 24.535156 17.488281 C 23.992188 17.785156 23.304688 17.582031 23.011719 17.035156 L 21.6875 14.585938 C 21.257812 15.109375 21 15.773438 21 16.5 Z M 11.898438 17.625 C 11.367188 20.398438 8.929688 22.5 6 22.5 C 2.6875 22.5 0 19.8125 0 16.5 C 0 13.1875 2.6875 10.5 6 10.5 C 8.929688 10.5 11.367188 12.601562 11.898438 15.375 L 8.78125 15.375 C 8.339844 14.273438 7.261719 13.5 6 13.5 C 4.34375 13.5 3 14.84375 3 16.5 C 3 18.15625 4.34375 19.5 6 19.5 C 7.261719 19.5 8.339844 18.726562 8.78125 17.625 Z M 4.5 16.5 C 4.5 15.671875 5.171875 15 6 15 C 6.828125 15 7.5 15.671875 7.5 16.5 C 7.5 17.328125 6.828125 18 6 18 C 5.171875 18 4.5 17.328125 4.5 16.5 Z M 4.5 16.5 "/>
</g>
</svg>
