<?xml version="1.0" encoding="UTF-8"?>
<svg xmlns="http://www.w3.org/2000/svg" xmlns:xlink="http://www.w3.org/1999/xlink" width="30px" height="27px" viewBox="0 0 30 27" version="1.1">
<g id="surface1">
<path style=" stroke:none;fill-rule:nonzero;fill:rgb(0%,0%,0%);fill-opacity:1;" d="M 28.628906 6.542969 C 28.300781 5.296875 27.335938 4.3125 26.113281 3.980469 C 23.894531 3.375 15 3.375 15 3.375 C 15 3.375 6.105469 3.375 3.886719 3.980469 C 2.664062 4.3125 1.699219 5.296875 1.371094 6.542969 C 0.777344 8.804688 0.777344 13.519531 0.777344 13.519531 C 0.777344 13.519531 0.777344 18.238281 1.371094 20.496094 C 1.699219 21.746094 2.664062 22.6875 3.886719 23.019531 C 6.105469 23.625 15 23.625 15 23.625 C 15 23.625 23.894531 23.625 26.113281 23.019531 C 27.335938 22.6875 28.300781 21.746094 28.628906 20.496094 C 29.222656 18.238281 29.222656 13.519531 29.222656 13.519531 C 29.222656 13.519531 29.222656 8.804688 28.628906 6.542969 Z M 12.089844 17.800781 L 12.089844 9.238281 L 19.523438 13.519531 Z M 12.089844 17.800781 "/>
</g>
</svg>
